<?xml version="1.0" encoding="UTF-8" standalone="no" ?>
<!DOCTYPE svg PUBLIC "-//W3C//DTD SVG 1.1//EN" "http://www.w3.org/Graphics/SVG/1.1/DTD/svg11.dtd">
<svg xmlns="http://www.w3.org/2000/svg" xmlns:xlink="http://www.w3.org/1999/xlink" version="1.1" width="210" height="68" viewBox="0 0 210 68" xml:space="preserve">
<desc>Created with Fabric.js 4.6.0</desc>
<defs>
</defs>
<g transform="matrix(3.21 0 0 1 106.32 27.6)" id="h8PTdvVzcLUmeEMIVn86i"  >
<path style="stroke: rgb(255,255,255); stroke-width: 5; stroke-dasharray: none; stroke-linecap: butt; stroke-dashoffset: 0; stroke-linejoin: miter; stroke-miterlimit: 4; fill: none; fill-rule: nonzero; opacity: 1;" vector-effect="non-scaling-stroke"  transform=" translate(0, 0)" d="M -25 9.03672 C -25 -9.761249999999999 -20.251260000000002 -25.000009999999996 -14.3934 -25.000009999999996 L 14.3934 -25.000009999999996 L 14.3934 -25.000009999999996 C 20.25126 -25.000009999999996 25 -9.761249999999997 25 9.036720000000003 L 25 9.036720000000003 L 25 9.036720000000003 C 25 17.852990000000002 22.77283 25 20.025489999999998 25 L -20.025490000000005 25 L -20.025490000000005 25 C -22.772840000000006 25 -25.000000000000007 17.853 -25.000000000000007 9.03672 z" stroke-linecap="round" />
</g>
<g transform="matrix(3.98 0 0 1.24 106.32 33.55)" id="ZoujQLFugyIc0xRaiSKJW"  >
<path style="stroke: rgb(255,255,255); stroke-width: 5; stroke-dasharray: none; stroke-linecap: butt; stroke-dashoffset: 0; stroke-linejoin: miter; stroke-miterlimit: 4; fill: none; fill-rule: nonzero; opacity: 1;" vector-effect="non-scaling-stroke"  transform=" translate(0, 0)" d="M -25 8.98812 C -25 -9.783 -20.25804 -25 -14.40854 -25 L 14.40855 -25 L 14.40855 -25 C 20.25805 -25 25.00001 -9.783 25.00001 8.988120000000002 L 25.00001 8.988120000000002 L 25.00001 8.988120000000002 C 25.00001 17.83124 22.76606 25.000000000000004 20.01035 25.000000000000004 L -20.01033 25.000000000000004 L -20.01033 25.000000000000004 C -22.76604 25.000000000000004 -24.99999 17.831240000000005 -24.99999 8.988120000000002 z" stroke-linecap="round" />
</g>
<g transform="matrix(1 0 0 1 106.32 27.6)" style="" id="CxThokkgBfVrr7jZl83IP"  >
		<text xml:space="preserve" font-family="sans-serif" font-size="25" font-style="normal" font-weight="700" line-height="1" style="stroke: rgb(255,255,255); stroke-width: 1; stroke-dasharray: none; stroke-linecap: butt; stroke-dashoffset: 0; stroke-linejoin: miter; stroke-miterlimit: 4; fill: rgb(255,255,255); fill-rule: nonzero; opacity: 1; white-space: pre;" ><tspan x="-37.1" y="7.85" >SPACE</tspan></text>
</g>
</svg>