<?xml version="1.0" encoding="UTF-8" standalone="no" ?>
<!DOCTYPE svg PUBLIC "-//W3C//DTD SVG 1.1//EN" "http://www.w3.org/Graphics/SVG/1.1/DTD/svg11.dtd">
<svg xmlns="http://www.w3.org/2000/svg" xmlns:xlink="http://www.w3.org/1999/xlink" version="1.1" width="210" height="138" viewBox="0 0 210 138" xml:space="preserve">
<desc>Created with Fabric.js 4.6.0</desc>
<defs>
</defs>
<g transform="matrix(1 0 0 1 104.45 27.6)" id="h8PTdvVzcLUmeEMIVn86i"  >
<path style="stroke: rgb(255,255,255); stroke-width: 5; stroke-dasharray: none; stroke-linecap: butt; stroke-dashoffset: 0; stroke-linejoin: miter; stroke-miterlimit: 4; fill: none; fill-rule: nonzero; opacity: 1;" vector-effect="non-scaling-stroke"  transform=" translate(-25, -25)" d="M 0 10.6066 C 0 4.748740000000001 4.74874 0 10.6066 0 L 39.3934 0 L 39.3934 0 C 45.25126 0 50 4.74874 50 10.6066 L 50 39.3934 L 50 39.3934 C 50 45.25126 45.25126 50 39.3934 50 L 10.6066 50 L 10.6066 50 C 4.748740000000001 50 0 45.25126 0 39.3934 z" stroke-linecap="round" />
</g>
<g transform="matrix(1.24 0 0 1.24 104.45 33.55)" id="ZoujQLFugyIc0xRaiSKJW"  >
<path style="stroke: rgb(255,255,255); stroke-width: 5; stroke-dasharray: none; stroke-linecap: butt; stroke-dashoffset: 0; stroke-linejoin: miter; stroke-miterlimit: 4; fill: none; fill-rule: nonzero; opacity: 1;" vector-effect="non-scaling-stroke"  transform=" translate(0, 0)" d="M -25 -14.3934 C -25 -20.25126 -20.251260000000002 -25 -14.3934 -25 L 14.3934 -25 L 14.3934 -25 C 20.25126 -25 25 -20.251260000000002 25 -14.3934 L 25 14.3934 L 25 14.3934 C 25 20.25126 20.251260000000002 25 14.3934 25 L -14.3934 25 L -14.3934 25 C -20.25126 25 -25 20.251260000000002 -25 14.3934 z" stroke-linecap="round" />
</g>
<g transform="matrix(1 0 0 1 104.45 27.6)" style="" id="CxThokkgBfVrr7jZl83IP"  >
		<text xml:space="preserve" font-family="sans-serif" font-size="25" font-style="normal" font-weight="700" line-height="1" style="stroke: rgb(255,255,255); stroke-width: 1; stroke-dasharray: none; stroke-linecap: butt; stroke-dashoffset: 0; stroke-linejoin: miter; stroke-miterlimit: 4; fill: rgb(255,255,255); fill-rule: nonzero; opacity: 1; white-space: pre;" ><tspan x="-11.54" y="7.85" >W</tspan></text>
</g>
<g transform="matrix(1 0 0 1 104.4 99.47)" id="nESWmzMK5dG5l_FLhPW58"  >
<path style="stroke: rgb(255,255,255); stroke-width: 5; stroke-dasharray: none; stroke-linecap: butt; stroke-dashoffset: 0; stroke-linejoin: miter; stroke-miterlimit: 4; fill: none; fill-rule: nonzero; opacity: 1;" vector-effect="non-scaling-stroke"  transform=" translate(-25, -25)" d="M 0 10.6066 C 0 4.748740000000001 4.74874 0 10.6066 0 L 39.3934 0 L 39.3934 0 C 45.25126 0 50 4.74874 50 10.6066 L 50 39.3934 L 50 39.3934 C 50 45.25126 45.25126 50 39.3934 50 L 10.6066 50 L 10.6066 50 C 4.748740000000001 50 0 45.25126 0 39.3934 z" stroke-linecap="round" />
</g>
<g transform="matrix(1.24 0 0 1.24 104.4 105.43)" id="A4TRsQTrkn1I8E2qJZGty"  >
<path style="stroke: rgb(255,255,255); stroke-width: 5; stroke-dasharray: none; stroke-linecap: butt; stroke-dashoffset: 0; stroke-linejoin: miter; stroke-miterlimit: 4; fill: none; fill-rule: nonzero; opacity: 1;" vector-effect="non-scaling-stroke"  transform=" translate(0, 0)" d="M -25 -14.3934 C -25 -20.25126 -20.251260000000002 -25 -14.3934 -25 L 14.3934 -25 L 14.3934 -25 C 20.25126 -25 25 -20.251260000000002 25 -14.3934 L 25 14.3934 L 25 14.3934 C 25 20.25126 20.251260000000002 25 14.3934 25 L -14.3934 25 L -14.3934 25 C -20.25126 25 -25 20.251260000000002 -25 14.3934 z" stroke-linecap="round" />
</g>
<g transform="matrix(1 0 0 1 104.4 99.47)" style="" id="VGSNDW6nJLme7SWlKOwRZ"  >
		<text xml:space="preserve" font-family="sans-serif" font-size="25" font-style="normal" font-weight="700" line-height="1" style="stroke: rgb(255,255,255); stroke-width: 1; stroke-dasharray: none; stroke-linecap: butt; stroke-dashoffset: 0; stroke-linejoin: miter; stroke-miterlimit: 4; fill: rgb(255,255,255); fill-rule: nonzero; opacity: 1; white-space: pre;" ><tspan x="-6.85" y="7.85" >S</tspan></text>
</g>
<g transform="matrix(1 0 0 1 176.4 99.51)" id="U9GrLADsBMqjgjYNAIwKQ"  >
<path style="stroke: rgb(255,255,255); stroke-width: 5; stroke-dasharray: none; stroke-linecap: butt; stroke-dashoffset: 0; stroke-linejoin: miter; stroke-miterlimit: 4; fill: none; fill-rule: nonzero; opacity: 1;" vector-effect="non-scaling-stroke"  transform=" translate(-25, -25)" d="M 0 10.6066 C 0 4.748740000000001 4.74874 0 10.6066 0 L 39.3934 0 L 39.3934 0 C 45.25126 0 50 4.74874 50 10.6066 L 50 39.3934 L 50 39.3934 C 50 45.25126 45.25126 50 39.3934 50 L 10.6066 50 L 10.6066 50 C 4.748740000000001 50 0 45.25126 0 39.3934 z" stroke-linecap="round" />
</g>
<g transform="matrix(1.24 0 0 1.24 176.4 105.47)" id="Kv6Ai4vRpIcH9oO66aTkD"  >
<path style="stroke: rgb(255,255,255); stroke-width: 5; stroke-dasharray: none; stroke-linecap: butt; stroke-dashoffset: 0; stroke-linejoin: miter; stroke-miterlimit: 4; fill: none; fill-rule: nonzero; opacity: 1;" vector-effect="non-scaling-stroke"  transform=" translate(0, 0)" d="M -25 -14.3934 C -25 -20.25126 -20.251260000000002 -25 -14.3934 -25 L 14.3934 -25 L 14.3934 -25 C 20.25126 -25 25 -20.251260000000002 25 -14.3934 L 25 14.3934 L 25 14.3934 C 25 20.25126 20.251260000000002 25 14.3934 25 L -14.3934 25 L -14.3934 25 C -20.25126 25 -25 20.251260000000002 -25 14.3934 z" stroke-linecap="round" />
</g>
<g transform="matrix(1 0 0 1 176.4 99.51)" style="" id="LH-hQ381xEB5yRZNnfvbD"  >
		<text xml:space="preserve" font-family="sans-serif" font-size="25" font-style="normal" font-weight="700" line-height="1" style="stroke: rgb(255,255,255); stroke-width: 1; stroke-dasharray: none; stroke-linecap: butt; stroke-dashoffset: 0; stroke-linejoin: miter; stroke-miterlimit: 4; fill: rgb(255,255,255); fill-rule: nonzero; opacity: 1; white-space: pre;" ><tspan x="-9.07" y="7.85" >D</tspan></text>
</g>
<g transform="matrix(1 0 0 1 32.4 99.47)" id="qVeUo0_fC3h2hIFfSD_AK"  >
<path style="stroke: rgb(255,255,255); stroke-width: 5; stroke-dasharray: none; stroke-linecap: butt; stroke-dashoffset: 0; stroke-linejoin: miter; stroke-miterlimit: 4; fill: none; fill-rule: nonzero; opacity: 1;" vector-effect="non-scaling-stroke"  transform=" translate(-25, -25)" d="M 0 10.6066 C 0 4.748740000000001 4.74874 0 10.6066 0 L 39.3934 0 L 39.3934 0 C 45.25126 0 50 4.74874 50 10.6066 L 50 39.3934 L 50 39.3934 C 50 45.25126 45.25126 50 39.3934 50 L 10.6066 50 L 10.6066 50 C 4.748740000000001 50 0 45.25126 0 39.3934 z" stroke-linecap="round" />
</g>
<g transform="matrix(1.24 0 0 1.24 32.4 105.43)" id="UtNzPTBORkTMoRGgYq68E"  >
<path style="stroke: rgb(255,255,255); stroke-width: 5; stroke-dasharray: none; stroke-linecap: butt; stroke-dashoffset: 0; stroke-linejoin: miter; stroke-miterlimit: 4; fill: none; fill-rule: nonzero; opacity: 1;" vector-effect="non-scaling-stroke"  transform=" translate(0, 0)" d="M -25 -14.3934 C -25 -20.25126 -20.251260000000002 -25 -14.3934 -25 L 14.3934 -25 L 14.3934 -25 C 20.25126 -25 25 -20.251260000000002 25 -14.3934 L 25 14.3934 L 25 14.3934 C 25 20.25126 20.251260000000002 25 14.3934 25 L -14.3934 25 L -14.3934 25 C -20.25126 25 -25 20.251260000000002 -25 14.3934 z" stroke-linecap="round" />
</g>
<g transform="matrix(1 0 0 1 32.4 99.47)" style="" id="l7byPB_MZAg_wdqg-XnZ7"  >
		<text xml:space="preserve" font-family="sans-serif" font-size="25" font-style="normal" font-weight="700" line-height="1" style="stroke: rgb(255,255,255); stroke-width: 1; stroke-dasharray: none; stroke-linecap: butt; stroke-dashoffset: 0; stroke-linejoin: miter; stroke-miterlimit: 4; fill: rgb(255,255,255); fill-rule: nonzero; opacity: 1; white-space: pre;" ><tspan x="-7.9" y="7.85" >A</tspan></text>
</g>
</svg>